<?xml version="1.0" standalone="no"?>
<!DOCTYPE svg PUBLIC "-//W3C//DTD SVG 20010904//EN"
 "http://www.w3.org/TR/2001/REC-SVG-20010904/DTD/svg10.dtd">
<svg version="1.0" xmlns="http://www.w3.org/2000/svg"
 width="2270.000000pt" height="2270.000000pt" viewBox="0 0 2270.000000 2270.000000"
 preserveAspectRatio="xMidYMid meet">
<metadata>
Created by potrace 1.14, written by Peter Selinger 2001-2017
</metadata>
<g transform="translate(0.000000,2270.000000) scale(0.100000,-0.100000)"
fill="#000000" stroke="none">
<path d="M10970 18490 c0 -58 7 -305 15 -550 8 -245 15 -466 15 -491 l0 -46
-577 -269 c-318 -148 -569 -270 -558 -272 11 -1 280 -29 599 -61 318 -33 580
-62 583 -64 2 -3 -46 -285 -107 -627 -61 -342 -109 -624 -107 -626 2 -2 192
241 423 540 230 300 425 545 432 545 8 1 293 -76 634 -169 341 -94 622 -169
624 -167 2 2 -137 156 -309 343 -171 187 -352 384 -401 438 l-90 97 365 365
c200 200 359 364 354 364 -6 0 -233 -40 -505 -90 -272 -49 -505 -91 -517 -92
-17 -2 -105 89 -433 452 -226 250 -418 462 -426 470 -12 12 -14 0 -14 -90z"/>
<path d="M15420 18463 c-1 -16 -16 -212 -34 -436 -24 -299 -36 -411 -46 -417
-7 -4 -209 -75 -448 -156 -240 -81 -431 -149 -426 -151 5 -1 201 -43 437 -91
235 -49 430 -91 433 -94 3 -3 -51 -201 -120 -439 -70 -238 -124 -434 -122
-436 2 -2 155 156 341 351 185 196 338 356 340 356 2 0 748 -289 935 -361 22
-9 23 -9 9 8 -9 10 -134 177 -278 371 -195 261 -261 355 -253 365 6 6 134 111
285 232 151 121 269 221 262 223 -6 2 -161 -9 -344 -23 -182 -14 -349 -25
-370 -25 l-39 0 -273 375 c-151 206 -277 374 -281 375 -5 0 -8 -12 -8 -27z"/>
<path d="M7156 16063 c9 -41 125 -855 122 -858 -2 -2 -172 -105 -378 -231
-206 -125 -381 -232 -387 -238 -9 -8 101 -10 425 -8 l437 4 -3 -43 c-28 -437
-52 -826 -52 -856 0 -34 27 7 255 387 140 234 260 429 268 434 10 6 852 -115
960 -138 9 -2 17 -3 17 -1 0 3 -633 562 -658 580 -11 9 32 69 216 300 127 160
229 291 228 292 -1 1 -165 -49 -365 -111 l-362 -113 -355 306 c-196 168 -359
307 -364 309 -5 2 -7 -5 -4 -15z"/>
<path d="M19514 15186 c-40 -32 -45 -40 -315 -486 -769 -1273 -1254 -1984
-1463 -2147 -45 -35 -55 -38 -110 -38 -97 0 -174 54 -204 144 -16 47 -15 186
2 268 37 176 160 439 317 678 142 218 178 313 164 441 -13 120 -107 256 -250
362 -57 42 -62 44 -111 38 -100 -12 -255 -74 -804 -324 l-175 -80 -6 92 c-9
132 -39 179 -122 193 -49 8 -99 -19 -185 -102 -171 -162 -347 -444 -421 -675
-71 -221 -67 -443 10 -564 37 -59 82 -80 156 -74 29 3 53 3 53 1 0 -23 -114
-302 -157 -384 -164 -313 -540 -719 -814 -880 -149 -87 -325 -136 -449 -126
-194 16 -300 128 -325 343 l-7 60 149 106 c611 437 994 863 1118 1244 82 251
39 492 -104 583 -64 41 -121 54 -226 54 -199 0 -449 -88 -680 -240 -531 -350
-928 -1021 -962 -1625 l-6 -113 -103 -155 c-155 -232 -272 -379 -434 -541
-219 -219 -361 -303 -515 -303 -71 0 -87 4 -145 33 -84 44 -182 142 -216 219
-44 98 -74 234 -74 336 l0 92 106 190 c586 1048 857 1757 893 2338 18 295 -32
688 -105 813 -109 188 -292 67 -599 -397 -461 -698 -796 -1602 -890 -2405 -22
-186 -29 -467 -16 -623 l11 -132 -145 -203 c-444 -623 -738 -891 -1063 -968
-214 -52 -382 5 -459 155 -20 40 -53 182 -53 232 0 6 24 27 54 47 100 66 369
273 486 373 303 259 516 505 643 744 144 270 165 543 54 706 -69 101 -211 141
-394 111 -444 -73 -879 -383 -1188 -847 -193 -290 -308 -584 -352 -903 l-17
-122 -148 -211 c-210 -298 -339 -457 -507 -625 -171 -170 -250 -231 -386 -299
-128 -63 -206 -83 -325 -84 -130 -1 -187 19 -261 94 -64 63 -91 129 -104 251
l-7 67 68 48 c812 573 1226 1093 1227 1544 0 308 -168 436 -492 375 -490 -93
-985 -503 -1274 -1055 -140 -266 -236 -607 -237 -835 l0 -61 -256 -324 c-306
-387 -385 -481 -499 -588 -104 -99 -189 -144 -280 -150 -103 -7 -156 36 -200
165 -97 280 -26 772 201 1381 32 87 42 104 64 109 132 31 284 83 378 129 94
45 126 67 186 127 90 89 152 207 195 372 30 118 108 541 100 549 -2 2 -96 -15
-209 -39 -112 -24 -206 -42 -209 -40 -2 3 19 64 47 137 27 73 57 163 66 199
21 86 21 187 0 218 -65 92 -299 52 -472 -81 -114 -88 -202 -245 -299 -535
l-58 -172 -120 -42 c-139 -48 -321 -132 -391 -180 -182 -124 -260 -262 -378
-661 -70 -237 -97 -351 -82 -345 6 3 63 28 126 55 97 43 486 160 496 149 2 -1
-6 -36 -16 -77 -103 -405 -266 -1180 -279 -1327 -34 -388 26 -686 168 -830
244 -248 666 -97 1083 386 173 200 392 512 592 844 49 81 92 147 96 147 4 0
12 -19 19 -42 22 -73 88 -207 147 -294 119 -180 270 -298 454 -355 111 -35
280 -33 405 5 465 140 926 590 1323 1290 47 83 89 155 93 159 3 5 17 -22 29
-60 73 -227 206 -435 353 -553 291 -232 641 -210 1055 67 328 221 664 621 951
1132 44 80 82 138 84 130 21 -83 87 -260 122 -330 206 -416 512 -538 890 -355
132 64 249 153 382 290 210 215 356 428 631 915 l24 43 20 -58 c61 -187 205
-409 334 -517 85 -72 225 -142 324 -163 254 -54 552 51 865 303 271 218 584
612 857 1078 181 308 273 499 362 753 l51 144 333 180 c183 99 336 178 339
174 3 -3 -27 -79 -67 -168 -107 -240 -157 -369 -195 -500 -117 -404 -71 -742
128 -942 105 -104 218 -156 342 -156 150 0 356 103 573 284 406 341 894 1055
1377 2014 59 117 111 210 115 205 4 -4 34 -48 67 -98 146 -219 340 -462 496
-622 99 -101 100 -102 84 -127 -25 -38 -90 -87 -237 -178 -288 -180 -397 -255
-572 -395 -372 -297 -658 -654 -851 -1063 -61 -127 -111 -260 -102 -268 13
-14 81 39 260 200 178 160 281 248 366 310 128 95 420 246 884 458 781 357
1118 563 1211 740 24 47 29 67 29 135 0 118 -18 145 -246 365 -404 388 -702
791 -984 1330 -51 96 -106 190 -123 208 -26 28 -37 32 -79 32 -36 0 -56 -6
-79 -24z m-6830 -1138 c-41 -425 -211 -972 -450 -1449 -101 -204 -154 -293
-165 -282 -6 6 5 87 25 204 95 533 217 921 398 1272 65 125 177 307 190 307 4
0 5 -24 2 -52z m2305 -645 c30 -38 35 -65 20 -125 -48 -203 -241 -507 -467
-736 -100 -101 -276 -252 -295 -252 -23 0 43 270 102 420 78 199 196 383 341
530 96 97 221 190 256 190 13 0 32 -12 43 -27z m-4514 -1308 c31 -30 32 -70 4
-160 -95 -308 -391 -693 -722 -940 l-38 -28 7 44 c34 241 134 498 275 709 108
163 364 400 431 400 10 0 30 -11 43 -25z m-2449 -706 c73 -81 -88 -438 -330
-726 -124 -148 -405 -408 -422 -390 -11 10 29 196 67 313 106 328 304 609 553
783 66 46 103 52 132 20z"/>
<path d="M21322 13263 c-1 -58 -8 -110 -21 -152 -20 -64 -20 -81 0 -81 23 0
168 -63 230 -100 138 -82 231 -193 271 -323 27 -89 21 -237 -12 -337 -144
-431 -675 -931 -1529 -1439 -791 -471 -1546 -810 -2556 -1146 -1109 -370
-2166 -611 -3018 -690 -572 -53 -1371 -27 -2142 70 -399 50 -534 59 -920 59
-423 0 -703 -21 -1185 -90 -550 -78 -843 -163 -1330 -386 -311 -142 -501 -245
-1230 -666 -409 -236 -957 -523 -1234 -646 -525 -234 -1138 -437 -1716 -569
l-65 -15 51 -1 c62 -1 318 23 469 45 295 42 628 122 936 224 534 178 1296 524
1994 905 625 341 1134 517 1745 601 156 21 585 30 721 15 559 -64 925 -301
790 -512 -68 -108 -275 -185 -612 -225 -110 -13 -174 -15 -359 -8 -322 13
-678 10 -800 -5 -533 -65 -1023 -194 -1450 -383 -194 -86 -322 -155 -705 -385
-750 -451 -1126 -594 -1813 -693 -421 -60 -761 -80 -1355 -80 -644 0 -941 -33
-1317 -147 -420 -127 -978 -418 -1400 -731 -121 -90 -330 -253 -330 -258 0 -2
38 21 84 51 204 131 555 317 801 425 478 209 845 306 1348 357 258 26 799 24
1192 -5 1211 -88 1740 -40 2470 225 99 36 421 162 715 280 763 306 1074 405
1525 484 149 26 215 32 386 36 127 4 238 1 291 -6 245 -33 413 -116 486 -240
24 -41 27 -56 27 -141 0 -88 -3 -101 -34 -165 -150 -304 -709 -501 -1636 -575
-71 -6 -364 -15 -650 -20 -286 -5 -585 -14 -665 -20 -875 -63 -1697 -279
-2790 -733 -381 -158 -2214 -967 -2207 -974 7 -6 402 108 577 166 96 32 393
136 660 231 966 343 1559 545 1819 620 700 202 1449 317 2274 351 259 10 483
7 852 -12 437 -22 722 -28 941 -19 933 38 1679 233 2274 595 47 29 204 131
350 227 302 200 439 281 730 433 744 388 1470 661 2312 869 145 36 499 119
788 185 1388 316 2015 488 2660 728 739 276 1436 662 1985 1102 141 113 155
124 155 117 0 -23 -237 -295 -384 -442 -334 -333 -673 -570 -1177 -824 -751
-378 -1422 -594 -2784 -896 -1069 -236 -1387 -316 -1798 -450 -804 -263 -1300
-539 -1997 -1109 -297 -243 -424 -332 -653 -460 -334 -186 -644 -293 -1071
-370 -454 -81 -699 -109 -1251 -140 -1327 -75 -2117 -205 -2809 -462 -183 -68
-481 -201 -455 -203 4 0 71 16 150 35 507 122 1050 206 1639 254 355 30 553
39 1025 51 943 23 1281 44 1712 105 492 71 1137 241 1512 400 374 158 606 280
1123 591 414 248 620 358 898 477 422 180 774 287 1370 416 753 163 1845 433
2268 561 847 256 1432 499 2062 857 684 389 1131 734 1531 1183 328 368 471
583 563 849 63 180 71 239 70 491 -2 329 -25 477 -184 1150 -175 745 -252 987
-365 1145 -113 159 -253 266 -455 346 -85 33 -335 109 -360 109 -4 0 -8 -39
-8 -87z m-3763 -4448 c-52 -28 -420 -190 -619 -272 -1030 -425 -1964 -674
-2875 -769 -196 -20 -602 -23 -725 -5 -142 20 -344 77 -421 117 -111 59 -128
86 -244 384 -72 187 -197 540 -191 540 2 0 50 -60 105 -134 140 -186 195 -233
376 -323 220 -110 439 -156 880 -184 666 -42 1588 88 2770 391 251 64 751 204
890 249 71 23 90 26 54 6z"/>
<path d="M3965 12684 c-16 -2 -86 -11 -155 -20 -701 -88 -1445 -372 -1985
-758 -253 -180 -504 -414 -679 -631 -106 -132 -253 -352 -331 -494 -145 -264
-269 -655 -290 -916 -12 -146 34 -287 129 -392 60 -66 128 -109 224 -141 67
-22 99 -26 242 -29 147 -4 201 0 500 36 732 89 970 106 1450 106 369 -1 402
-2 500 -23 174 -36 264 -93 262 -165 -2 -77 -115 -239 -273 -392 -417 -404
-1124 -766 -2062 -1054 -174 -54 -569 -163 -573 -158 -2 1 18 34 43 72 92 141
123 233 93 271 -34 40 -135 -22 -277 -169 -116 -122 -159 -177 -247 -317 -124
-197 -223 -410 -241 -516 -14 -87 38 -182 127 -233 78 -45 171 -63 323 -63
267 1 572 68 1095 242 1066 354 1938 861 2334 1357 245 307 337 569 314 898
-8 111 -44 252 -85 327 -115 212 -381 366 -738 429 -165 29 -416 31 -890 6
-561 -29 -1050 -40 -1256 -28 -281 16 -329 35 -329 131 0 102 109 269 305 465
409 410 1042 773 1834 1052 85 29 158 50 162 46 4 -4 -15 -37 -43 -73 -154
-197 -308 -470 -308 -546 0 -12 12 -36 26 -53 22 -26 33 -31 72 -31 68 0 103
30 261 219 146 176 194 223 331 329 294 227 362 287 431 385 75 107 94 175 93
332 -1 111 -6 147 -32 249 -36 138 -65 201 -105 230 -24 18 -45 21 -125 22
-53 1 -110 0 -127 -2z"/>
<path d="M19919 11241 c-677 -333 -1813 -741 -2764 -991 -688 -181 -1467 -325
-2000 -370 -180 -15 -483 -12 -600 5 -227 34 -363 112 -428 246 -51 104 -43
228 23 359 23 45 27 60 16 60 -8 0 -52 16 -98 36 l-83 35 -114 -118 c-252
-261 -361 -444 -362 -606 -1 -289 365 -431 1106 -430 517 0 1035 78 1735 259
1251 324 2458 806 3315 1324 170 103 404 259 373 249 -2 0 -55 -26 -119 -58z"/>
<path d="M4823 6743 c9 -2 23 -2 30 0 6 3 -1 5 -18 5 -16 0 -22 -2 -12 -5z"/>
<path d="M3894 5535 c-245 -36 -394 -93 -997 -379 -357 -169 -470 -219 -739
-327 -390 -156 -988 -343 -1548 -484 -119 -30 -137 -39 -65 -31 28 3 133 15
235 26 491 55 1066 164 1600 304 638 167 1189 314 1360 362 292 84 426 142
511 221 88 82 90 166 4 241 -77 67 -200 90 -361 67z"/>
</g>
</svg>
