<?xml version="1.0" encoding="utf-8"?>
<!-- Generator: Adobe Illustrator 16.0.0, SVG Export Plug-In . SVG Version: 6.00 Build 0)  -->
<!DOCTYPE svg PUBLIC "-//W3C//DTD SVG 1.1 Basic//EN" "http://www.w3.org/Graphics/SVG/1.1/DTD/svg11-basic.dtd">
<svg version="1.1" baseProfile="basic" id="Layer_1" xmlns="http://www.w3.org/2000/svg"
	xmlns:xlink="http://www.w3.org/1999/xlink" x="0px" y="0px" width="62.5px" height="40px" viewBox="0 0 62.5 40"
	xml:space="preserve">
	<g>
		<line fill="none" stroke="#FFFFFF" stroke-width="2" x1="62.5" y1="20.031" x2="20.5" y2="20.031" />
		<polygon fill="#FFFFFF" stroke="#FFFFFF" stroke-miterlimit="10" points="21,25 15.406,20.093 21,15.06 	" />
		<path d="M19.938,2.045c9.866,0,17.893,8.026,17.893,17.893S29.804,37.83,19.938,37.83S2.045,29.804,2.045,19.938
		S10.071,2.045,19.938,2.045 M19.938,0C8.926,0,0,8.926,0,19.938c0,11.011,8.926,19.938,19.938,19.938s19.938-8.927,19.938-19.938
		C39.875,8.926,30.949,0,19.938,0L19.938,0z" />
	</g>
</svg>
