<?xml version="1.0" encoding="utf-8"?>
<!DOCTYPE svg PUBLIC "-//W3C//DTD SVG 1.1 Basic//EN" "http://www.w3.org/Graphics/SVG/1.1/DTD/svg11-basic.dtd">
<svg version="1.1" baseProfile="basic" xmlns="http://www.w3.org/2000/svg" xmlns:xlink="http://www.w3.org/1999/xlink"
	x="0px" y="0px" viewBox="0 0 2160.994 1269.326" xml:space="preserve">
	<g>
		<polygon opacity="0.6235" fill="#60CCF4" points="1899.094,901.281 1704.086,825.828 1828.031,982.646 1657.184,1097.064 
		1876.421,1071.689 1985.262,1269.326 1985.263,1269.326 1996.855,1065.646 2160.994,1069.018 2023.029,970.155 2036.563,761.732 	
		" />
		<polygon opacity="0.6235" fill="#60CCF4" points="1052.545,440.989 834.182,623.499 1135.206,557.757 1300.794,797.289 
		1288.989,533.327 1516.628,513.438 1311.042,396.185 1300.562,115.589 1137.597,322.204 866.86,249.481 	" />
		<polygon opacity="0.6235" fill="#60CCF4" points="201.578,166.823 0,135.931 151.083,259.406 6.951,410.318 219.52,337.103 
		363.899,502.095 333.899,305.901 494.793,272.957 338.4,207.685 304.597,0 	" />
	</g>
</svg>
