<svg xmlns="http://www.w3.org/2000/svg" width="2160.993" height="1269.327" viewBox="0 0 2160.993 1269.327">
	<g transform="translate(0 1269.327)">
		<g transform="translate(1899.094 -368.046)">
			<path
				d="M0,0-195.008-75.453-71.062,81.365-241.91,195.783l219.237-25.374L86.168,368.046h0l11.593-203.68L261.9,167.737h0L123.936,68.875,137.47-139.548Z"
				fill="#4ed6ff" />
		</g>
		<g transform="translate(1052.545 -828.338)">
			<path
				d="M0,0-218.363,182.51,82.661,116.768,248.249,356.3l-11.8-263.963L464.083,72.45,258.5-44.8l-10.48-280.6L85.052-118.785l-270.737-72.723Z"
				fill="#4ed6ff" />
		</g>
		<g transform="translate(201.578 -1102.504)">
			<path
				d="M0,0-201.578-30.892h0L-50.495,92.583-194.627,243.5,17.942,170.28,162.321,335.272l-30-196.194,160.894-32.944L136.822,40.862l-33.8-207.685Z"
				fill="#4ed6ff" />
		</g>
	</g>
</svg>
