<svg xmlns="http://www.w3.org/2000/svg" xmlns:xlink="http://www.w3.org/1999/xlink" version="1.1" id="Ebene_1" x="0px" y="0px" style="enable-background:new 0 0 1366 768;" xml:space="preserve" viewBox="469.3 281.8 427.7 204.7"><g id="Layer_3">	<g>		<path d="M480.2,450.4c2.5-0.8,4.2-0.8,5-0.8c12.6,0,22.6,10.1,22.6,22.6c0,1.7,0,2.5-0.8,4.2c-0.8,2.5,0,5,1.7,6.7    c1.7,1.7,4.2,3.4,6.7,3.4h335.5l0,0c5,0,8.4-3.4,8.4-8.4c0-0.8,0-1.7-0.8-3.4c0-0.8,0-1.7,0-2.5c0-12.6,10.1-22.6,22.6-22.6    c1.7,0,3.4,0,5,0.8c2.5,0.8,5,0,7.5-1.7c1.7-1.7,3.4-4.2,3.4-6.7V326.3c0-2.5-0.8-5-3.4-6.7c-1.7-1.7-5-2.5-7.5-1.7    c-2.5,0.8-4.2,0.8-5,0.8c-12.6,0-22.6-10.1-22.6-22.6c0-1.7,0-2.5,0.8-4.2c0.8-2.5,0-5-1.7-6.7c-1.7-1.7-4.2-3.4-6.7-3.4H515.4    c-2.5,0-5,0.8-6.7,3.4c-1.7,1.7-1.7,4.2-1.7,6.7c0,1.7,0.8,2.5,0.8,4.2c0,12.6-10.1,22.6-22.6,22.6c-1.7,0-3.4,0-5-0.8    c-2.5-0.8-5,0-7.5,1.7c-1.7,1.7-3.4,4.2-3.4,6.7v116.6c0,2.5,0.8,5,3.4,6.7C474.3,450.4,477.6,451.2,480.2,450.4z M486,335.5    c20.1-0.8,36.9-16.8,38.6-36.9h317.9c0.8,20.1,17.6,36.1,38.6,36.9v97.3c-20.1,0.8-36.9,16.8-38.6,36.9H524.6    c-0.8-20.1-17.6-36.1-38.6-36.9V335.5z"></path>		<path d="M574.1,335.5h218.1c5,0,8.4-3.4,8.4-8.4c0-5-3.4-8.4-8.4-8.4H574.1c-5,0-8.4,3.4-8.4,8.4    C565.7,332.1,569.1,335.5,574.1,335.5z"></path>		<path d="M574.1,449.5h218.1c5,0,8.4-3.4,8.4-8.4s-3.4-8.4-8.4-8.4H574.1c-5,0-8.4,3.4-8.4,8.4S569.1,449.5,574.1,449.5z"></path>	</g></g><g>	<path d="M569.9,368.5h-16.7v-8.8h44v8.8h-16.7v39.9h-10.6V368.5z"></path>	<path d="M603.7,359.8h10.6v48.7h-10.6V359.8z"></path>	<path d="M622.9,384.1c0-14.3,10.3-25.4,25.3-25.4c11.7,0,19.9,6.4,22.5,15l-9.5,3.7c-2.1-5.9-6.1-9.9-13.1-9.9   c-8.8,0-14.1,6.1-14.1,16.6c0,10.6,5.2,16.7,14.1,16.7c7,0,11.3-4.2,13.4-10l9.3,3.8c-3.5,9.4-10.9,15.1-22.7,15.1   C632.9,409.6,622.9,398.9,622.9,384.1z"></path>	<path d="M694.9,386.8l-5.9,6.1v15.6h-10.6v-48.7H689v7.9V380l17.8-20.2H721l-18.8,19.5l21.2,29.2h-13.3L694.9,386.8z"></path>	<path d="M728.4,359.8h36.8v8.8h-26.2v10.6h19.8v8.6h-19.8v12h26.2v8.8h-36.8V359.8z"></path>	<path d="M785.8,368.5h-16.7v-8.8h44v8.8h-16.7v39.9h-10.6V368.5z"></path></g></svg>