<?xml version="1.0" encoding="UTF-8" standalone="no"?>
<!-- Created with Inkscape (http://www.inkscape.org/) -->

<svg
   version="1.1"
   id="svg2"
   width="762.29999"
   height="173.992"
   viewBox="0 0 762.29999 173.992"
   sodipodi:docname="wby_Logo_vertikal_4c.ai"
   xmlns:inkscape="http://www.inkscape.org/namespaces/inkscape"
   xmlns:sodipodi="http://sodipodi.sourceforge.net/DTD/sodipodi-0.dtd"
   xmlns="http://www.w3.org/2000/svg"
   xmlns:svg="http://www.w3.org/2000/svg">
  <defs
     id="defs6">
    <clipPath
       clipPathUnits="userSpaceOnUse"
       id="clipPath16">
      <path
         d="M 0,130.494 H 571.725 V 0 H 0 Z"
         id="path14" />
    </clipPath>
  </defs>
  <sodipodi:namedview
     id="namedview4"
     pagecolor="#ffffff"
     bordercolor="#000000"
     borderopacity="0.25"
     inkscape:showpageshadow="2"
     inkscape:pageopacity="0.0"
     inkscape:pagecheckerboard="0"
     inkscape:deskcolor="#d1d1d1" />
  <g
     id="g8"
     inkscape:groupmode="layer"
     inkscape:label="wby_Logo_vertikal_4c"
     transform="matrix(1.3333333,0,0,-1.3333333,0,173.992)">
    <g
       id="g10">
      <g
         id="g12"
         clip-path="url(#clipPath16)">
        <g
           id="g18"
           transform="translate(144.7909,45.7512)">
          <path
             d="M 0,0 C -0.651,0 -1.177,0.172 -1.575,0.516 -1.974,0.86 -2.299,1.375 -2.552,2.064 l -12.002,34.267 c -0.254,0.76 -0.19,1.402 0.19,1.928 0.381,0.524 0.986,0.787 1.82,0.787 0.615,0 1.104,-0.154 1.466,-0.462 0.361,-0.307 0.669,-0.787 0.923,-1.438 L 1.086,4.182 h -1.9 l 11.458,32.8 c 0.253,0.688 0.561,1.204 0.923,1.548 0.362,0.344 0.85,0.516 1.467,0.516 0.578,0 1.04,-0.172 1.384,-0.516 0.344,-0.344 0.643,-0.86 0.896,-1.548 L 26.61,4.182 h -1.683 l 11.35,32.964 c 0.181,0.615 0.461,1.085 0.841,1.412 0.381,0.325 0.878,0.488 1.494,0.488 0.76,0 1.321,-0.254 1.683,-0.76 0.362,-0.508 0.398,-1.159 0.109,-1.955 L 28.348,2.064 C 28.094,1.375 27.778,0.86 27.397,0.516 27.018,0.172 26.483,0 25.795,0 25.144,0 24.628,0.172 24.248,0.516 23.868,0.86 23.533,1.375 23.243,2.064 L 12.328,33.507 h 1.194 L 2.499,2.064 C 2.245,1.375 1.937,0.86 1.575,0.516 1.213,0.172 0.687,0 0,0"
             style="fill:#3f3f3f;fill-opacity:1;fill-rule:nonzero;stroke:none"
             id="path20" />
        </g>
        <g
           id="g22"
           transform="translate(194.7528,46.1316)">
          <path
             d="m 0,0 c -0.797,0 -1.403,0.208 -1.819,0.625 -0.417,0.416 -0.625,1.022 -0.625,1.819 v 33.398 c 0,0.796 0.208,1.403 0.625,1.819 0.416,0.416 1.022,0.625 1.819,0.625 h 20.202 c 0.615,0 1.086,-0.163 1.412,-0.489 0.325,-0.326 0.489,-0.779 0.489,-1.358 0,-0.616 -0.164,-1.086 -0.489,-1.412 -0.326,-0.325 -0.797,-0.488 -1.412,-0.488 H 1.901 V 21.288 h 17.161 c 0.615,0 1.085,-0.155 1.411,-0.462 0.326,-0.307 0.489,-0.769 0.489,-1.385 0,-0.615 -0.163,-1.086 -0.489,-1.411 -0.326,-0.326 -0.796,-0.489 -1.411,-0.489 H 1.901 V 3.747 h 18.301 c 0.615,0 1.086,-0.163 1.412,-0.489 0.325,-0.325 0.489,-0.779 0.489,-1.357 0,-0.616 -0.164,-1.087 -0.489,-1.412 C 21.288,0.163 20.817,0 20.202,0 Z"
             style="fill:#3f3f3f;fill-opacity:1;fill-rule:nonzero;stroke:none"
             id="path24" />
        </g>
        <g
           id="g26"
           transform="translate(230.1058,51.3992)">
          <path
             d="m 0,0 h 9.775 c 2.461,0 4.271,0.479 5.431,1.439 1.158,0.959 1.737,2.398 1.737,4.317 0,1.955 -0.579,3.403 -1.737,4.345 -1.16,0.941 -2.97,1.412 -5.431,1.412 l -9.775,0 z m 0,16.781 h 8.852 c 2.389,0 4.172,0.461 5.349,1.385 1.176,0.923 1.765,2.289 1.765,4.1 0,1.81 -0.589,3.176 -1.765,4.1 -1.177,0.923 -2.96,1.384 -5.349,1.384 H 0 Z M -2.987,-5.268 c -1.195,0 -2.109,0.317 -2.742,0.951 -0.634,0.633 -0.951,1.547 -0.951,2.742 v 30.9 c 0,1.195 0.317,2.109 0.951,2.743 0.633,0.633 1.547,0.95 2.742,0.95 h 13.033 c 2.679,0 4.96,-0.399 6.843,-1.195 1.882,-0.796 3.321,-1.937 4.318,-3.421 0.995,-1.485 1.493,-3.258 1.493,-5.322 0,-2.317 -0.671,-4.272 -2.01,-5.865 -1.339,-1.593 -3.168,-2.661 -5.484,-3.204 v 0.815 c 2.678,-0.399 4.76,-1.412 6.245,-3.041 1.484,-1.63 2.226,-3.747 2.226,-6.354 0,-3.404 -1.15,-6.037 -3.448,-7.902 -2.3,-1.865 -5.494,-2.797 -9.585,-2.797 z"
             style="fill:#3f3f3f;fill-opacity:1;fill-rule:nonzero;stroke:none"
             id="path28" />
        </g>
        <g
           id="g30"
           transform="translate(267.7391,66.6048)">
          <path
             d="m 0,0 h 8.472 c 2.498,0 4.389,0.516 5.674,1.548 1.285,1.032 1.929,2.579 1.929,4.643 0,2.027 -0.644,3.557 -1.929,4.589 -1.285,1.032 -3.176,1.548 -5.674,1.548 l -8.472,0 z m -3.476,-20.908 c -1.122,0 -1.982,0.318 -2.579,0.951 -0.597,0.633 -0.896,1.511 -0.896,2.634 v 31.606 c 0,1.158 0.307,2.036 0.923,2.634 0.615,0.597 1.484,0.895 2.607,0.895 H 9.667 c 4.199,0 7.439,-1.004 9.72,-3.013 2.281,-2.01 3.422,-4.825 3.422,-8.445 C 22.809,4 22.292,1.973 21.261,0.272 20.229,-1.43 18.735,-2.734 16.78,-3.638 14.826,-4.543 12.454,-4.996 9.667,-4.996 l 0.488,0.815 h 1.792 c 1.484,0 2.778,-0.362 3.883,-1.087 1.104,-0.724 2.072,-1.864 2.905,-3.421 l 4.074,-7.548 c 0.434,-0.761 0.632,-1.503 0.597,-2.227 -0.037,-0.724 -0.308,-1.312 -0.815,-1.765 -0.507,-0.452 -1.249,-0.679 -2.226,-0.679 -0.978,0 -1.775,0.209 -2.39,0.625 -0.616,0.416 -1.159,1.059 -1.629,1.928 L 10.861,-8.254 C 10.209,-7.024 9.44,-6.2 8.553,-5.783 7.666,-5.368 6.535,-5.159 5.159,-5.159 H 0 v -12.164 c 0,-1.123 -0.29,-2.001 -0.869,-2.634 -0.58,-0.633 -1.448,-0.951 -2.607,-0.951"
             style="fill:#3f3f3f;fill-opacity:1;fill-rule:nonzero;stroke:none"
             id="path32" />
        </g>
        <g
           id="g34"
           transform="translate(313.3021,76.8689)">
          <path
             d="m 0,0 -7.603,-18.084 -1.412,1.738 H 9.123 L 7.766,-18.084 0.108,0 Z m -15.586,-31.172 c -0.869,0 -1.566,0.2 -2.091,0.598 -0.525,0.398 -0.841,0.931 -0.95,1.602 -0.108,0.669 0.018,1.42 0.38,2.253 L -3.91,5.05 c 0.471,1.05 1.04,1.801 1.711,2.254 0.669,0.452 1.439,0.679 2.307,0.679 0.833,0 1.584,-0.227 2.254,-0.679 C 3.032,6.851 3.603,6.1 4.073,5.05 l 14.391,-31.769 c 0.398,-0.833 0.543,-1.593 0.434,-2.281 -0.108,-0.687 -0.416,-1.221 -0.922,-1.602 -0.508,-0.379 -1.177,-0.57 -2.01,-0.57 -1.014,0 -1.801,0.245 -2.362,0.734 -0.562,0.488 -1.059,1.239 -1.494,2.253 l -3.53,8.2 2.933,-1.9 h -22.917 l 2.932,1.9 -3.475,-8.2 c -0.471,-1.05 -0.96,-1.811 -1.467,-2.281 -0.507,-0.47 -1.231,-0.706 -2.172,-0.706"
             style="fill:#3f3f3f;fill-opacity:1;fill-rule:nonzero;stroke:none"
             id="path36" />
        </g>
        <g
           id="g38"
           transform="translate(340.9974,45.697)">
          <path
             d="m 0,0 c -1.05,0 -1.855,0.291 -2.416,0.869 -0.562,0.579 -0.842,1.412 -0.842,2.498 v 32.312 c 0,1.122 0.28,1.982 0.842,2.58 0.561,0.597 1.294,0.896 2.199,0.896 C 0.615,39.155 1.24,39 1.657,38.693 2.072,38.385 2.57,37.869 3.15,37.146 L 23.949,10.155 h -1.412 v 25.687 c 0,1.05 0.28,1.865 0.842,2.444 0.561,0.579 1.366,0.869 2.417,0.869 1.05,0 1.847,-0.29 2.39,-0.869 C 28.729,37.707 29,36.892 29,35.842 V 3.258 C 29,2.245 28.746,1.448 28.239,0.869 27.732,0.291 27.045,0 26.176,0 25.343,0 24.683,0.163 24.193,0.489 23.705,0.815 23.171,1.339 22.592,2.064 L 1.847,29.054 H 3.204 V 3.367 C 3.204,2.281 2.933,1.448 2.39,0.869 1.847,0.291 1.05,0 0,0"
             style="fill:#3f3f3f;fill-opacity:1;fill-rule:nonzero;stroke:none"
             id="path40" />
        </g>
        <g
           id="g42"
           transform="translate(385.3109,51.888)">
          <path
             d="m 0,0 h 6.843 c 2.244,0 4.189,0.28 5.838,0.842 1.646,0.561 3.022,1.393 4.127,2.498 1.103,1.104 1.927,2.498 2.47,4.181 0.543,1.684 0.815,3.647 0.815,5.893 0,4.488 -1.105,7.837 -3.313,10.046 -2.209,2.208 -5.521,3.313 -9.937,3.313 H 0 Z m -3.259,-5.756 c -1.194,0 -2.109,0.316 -2.742,0.95 -0.634,0.633 -0.95,1.548 -0.95,2.743 v 30.899 c 0,1.195 0.316,2.109 0.95,2.743 0.633,0.633 1.548,0.95 2.742,0.95 H 7.277 c 6.408,0 11.359,-1.648 14.853,-4.942 3.493,-3.295 5.24,-8.019 5.24,-14.173 0,-3.078 -0.443,-5.803 -1.33,-8.173 C 25.152,2.869 23.849,0.869 22.13,-0.76 20.409,-2.389 18.31,-3.63 15.83,-4.48 13.35,-5.331 10.499,-5.756 7.277,-5.756 Z"
             style="fill:#3f3f3f;fill-opacity:1;fill-rule:nonzero;stroke:none"
             id="path44" />
        </g>
        <g
           id="g46"
           transform="translate(431.7425,45.7512)">
          <path
             d="M 0,0 C -0.725,0 -1.276,0.209 -1.656,0.625 -2.037,1.041 -2.227,1.629 -2.227,2.39 v 17.812 l 0.978,-3.096 -13.631,18.79 c -0.326,0.471 -0.48,0.951 -0.462,1.439 0.018,0.489 0.208,0.896 0.571,1.223 0.361,0.325 0.832,0.488 1.412,0.488 0.505,0 0.959,-0.118 1.357,-0.353 0.398,-0.235 0.76,-0.607 1.086,-1.113 L 0.651,21.614 h -1.14 L 11.078,37.58 c 0.398,0.543 0.778,0.923 1.141,1.14 0.361,0.218 0.796,0.326 1.302,0.326 0.58,0 1.033,-0.154 1.359,-0.462 0.325,-0.307 0.497,-0.705 0.516,-1.194 0.017,-0.489 -0.155,-1.005 -0.516,-1.548 L 1.303,17.106 2.227,20.202 V 2.39 C 2.227,0.796 1.483,0 0,0"
             style="fill:#3f3f3f;fill-opacity:1;fill-rule:nonzero;stroke:none"
             id="path48" />
        </g>
        <g
           id="g50"
           transform="translate(466.3353,49.6072)">
          <path
             d="m 0,0 c 2.751,0 5.078,0.615 6.979,1.846 1.901,1.231 3.357,3.023 4.372,5.377 1.012,2.353 1.52,5.176 1.52,8.471 0,4.96 -1.113,8.806 -3.34,11.54 -2.226,2.734 -5.403,4.1 -9.531,4.1 -2.68,0 -4.969,-0.615 -6.869,-1.846 -1.902,-1.231 -3.359,-3.014 -4.372,-5.349 -1.014,-2.335 -1.521,-5.151 -1.521,-8.445 0,-4.923 1.122,-8.77 3.367,-11.54 C -7.15,1.385 -4.019,0 0,0 m 0,-3.964 c -3.548,0 -6.635,0.805 -9.259,2.416 -2.625,1.611 -4.652,3.883 -6.082,6.816 -1.43,2.932 -2.145,6.408 -2.145,10.426 0,3.041 0.407,5.765 1.221,8.174 0.816,2.407 1.983,4.453 3.503,6.136 1.521,1.683 3.358,2.987 5.513,3.91 2.153,0.923 4.569,1.385 7.249,1.385 3.62,0 6.743,-0.797 9.368,-2.389 2.624,-1.594 4.652,-3.848 6.082,-6.762 1.43,-2.915 2.146,-6.38 2.146,-10.399 0,-3.041 -0.417,-5.775 -1.249,-8.201 C 15.514,5.123 14.337,3.059 12.816,1.357 11.296,-0.345 9.458,-1.656 7.305,-2.58 5.15,-3.503 2.716,-3.964 0,-3.964"
             style="fill:#3f3f3f;fill-opacity:1;fill-rule:nonzero;stroke:none"
             id="path52" />
        </g>
        <g
           id="g54"
           transform="translate(507.0101,45.6428)">
          <path
             d="m 0,0 c -2.534,0 -4.751,0.335 -6.652,1.005 -1.901,0.669 -3.503,1.664 -4.806,2.987 -1.304,1.32 -2.281,2.959 -2.933,4.914 -0.651,1.955 -0.977,4.199 -0.977,6.734 v 21.234 c 0,0.76 0.19,1.33 0.57,1.71 0.38,0.38 0.932,0.571 1.656,0.571 0.724,0 1.277,-0.191 1.657,-0.571 0.38,-0.38 0.57,-0.95 0.57,-1.71 V 15.857 c 0,-3.982 0.923,-6.96 2.769,-8.933 1.847,-1.974 4.562,-2.96 8.146,-2.96 3.585,0 6.281,0.986 8.092,2.96 1.81,1.973 2.716,4.951 2.716,8.933 v 21.017 c 0,0.76 0.198,1.33 0.596,1.71 0.399,0.38 0.959,0.571 1.684,0.571 0.687,0 1.222,-0.191 1.602,-0.571 0.38,-0.38 0.571,-0.95 0.571,-1.71 V 15.64 C 15.261,12.273 14.69,9.413 13.55,7.06 12.409,4.706 10.698,2.941 8.418,1.765 6.137,0.588 3.331,0 0,0"
             style="fill:#3f3f3f;fill-opacity:1;fill-rule:nonzero;stroke:none"
             id="path56" />
        </g>
        <g
           id="g58"
           transform="translate(543.0209,45.5882)">
          <path
             d="m 0,0 c -2.628,0 -4.754,0.815 -6.384,2.445 -1.63,1.63 -2.444,3.711 -2.444,6.247 0,2.534 0.814,4.595 2.444,6.18 1.63,1.583 3.756,2.377 6.384,2.377 2.625,0 4.706,-0.794 6.247,-2.377 C 7.785,13.287 8.556,11.226 8.556,8.692 8.556,6.156 7.785,4.075 6.247,2.445 4.706,0.815 2.625,0 0,0"
             style="fill:#d2d700;fill-opacity:1;fill-rule:nonzero;stroke:none"
             id="path60" />
        </g>
        <g
           id="g62"
           transform="translate(85.2509,117.0311)">
          <path
             d="m 0,0 c -5.4,-2.439 -10.799,-4.881 -16.198,-7.324 -4.577,-2.071 -8.246,-5.738 -10.309,-10.318 -0.779,-1.73 -1.555,-3.461 -2.329,-5.193 -0.409,-0.916 -0.762,-1.186 -1.804,-0.848 -1.72,0.558 -3.441,1.109 -5.164,1.657 -4.867,1.545 -10.133,1.237 -14.783,-0.871 -5.794,-2.627 -11.588,-5.254 -17.381,-7.885 -4.755,-2.16 -6.615,-7.252 -4.463,-12.016 7.144,-15.816 14.292,-31.629 21.477,-47.426 4.594,-10.099 15.44,-15.76 26.313,-13.814 10.857,1.943 19.006,10.887 19.96,21.903 0.043,0.499 0.099,0.997 0.168,1.686 5.275,-4.193 11.029,-6.165 17.522,-5.692 16.767,1.223 27.156,18.883 20.363,34.261 C 26.365,-36.017 19.116,-20.26 11.925,-4.479 9.797,0.19 4.657,2.103 0,0"
             style="fill:#3f3f3f;fill-opacity:1;fill-rule:nonzero;stroke:none"
             id="path64" />
        </g>
        <g
           id="g66"
           transform="translate(99.6767,48.0687)">
          <path
             d="m 0,0 c -4.325,-1.942 -9.556,0.031 -11.513,4.343 -1.958,4.312 -0.007,9.542 4.302,11.529 4.344,2.005 9.68,-0.007 11.607,-4.375 C 6.313,7.15 4.321,1.94 0,0"
             style="fill:#d2d700;fill-opacity:1;fill-rule:nonzero;stroke:none"
             id="path68" />
        </g>
        <g
           id="g70"
           transform="translate(64.3395,34.5751)">
          <path
             d="m 0,0 c -1.156,-2.575 -3.185,-4.218 -5.939,-4.803 -3.312,-0.703 -6.197,0.231 -8.377,2.833 -2.213,2.641 -2.686,5.686 -1.324,8.863 2.431,5.671 4.919,11.319 7.487,16.929 0.56,1.223 0.232,1.483 -0.887,1.824 -5.725,1.741 -11.431,3.549 -17.133,5.367 -4.918,1.569 -7.46,6.262 -5.954,10.91 1.506,4.65 6.277,6.932 11.221,5.375 6.372,-2.006 12.756,-3.979 19.11,-6.041 1.042,-0.338 1.394,-0.068 1.804,0.848 2.655,5.942 5.33,11.875 8.078,17.775 1.41,3.027 4.405,5.063 7.745,5.095 3.657,0.035 6.255,-1.775 7.761,-4.718 1.136,-2.612 1.173,-4.964 0.133,-7.29 C 15.827,35.307 7.924,17.649 0,0"
             style="fill:#ffffff;fill-opacity:1;fill-rule:nonzero;stroke:none"
             id="path72" />
        </g>
      </g>
    </g>
  </g>
</svg>
